<svg height="512" viewBox="0 0 512 512" width="512" xmlns="http://www.w3.org/2000/svg"><g id="Layer_2" data-name="Layer 2"><rect fill="#29abe2" height="440" rx="56" width="440" x="36" y="36"/><path d="m401.839 137.041a127.992 127.992 0 0 1 -40.234 15.143 64.538 64.538 0 0 0 -62.763-17.545 63.555 63.555 0 0 0 -42.32 37.158 62.209 62.209 0 0 0 -2.838 37.245 180.785 180.785 0 0 1 -130.541-65.137c-16.727 28.253-7.647 65.291 19.6 83.229a63.946 63.946 0 0 1 -28.689-7.795 63.346 63.346 0 0 0 50.815 61.922 65 65 0 0 1 -28.618 1.068 63.317 63.317 0 0 0 59.166 43.3 129.9 129.9 0 0 1 -93.783 25.817c50.25 31.688 115.668 36.908 170.375 13.647 43.072-18.313 76.707-54.345 94.005-97.628a177.137 177.137 0 0 0 12.755-73.465 127.436 127.436 0 0 0 31.592-32.278 127.691 127.691 0 0 1 -36.376 9.813 62.681 62.681 0 0 0 27.854-34.494z" fill="#fff"/><path d="m420 482h-328c-33.791 0-62-28.209-62-62v-44h12v44c0 27.248 22.753 50 50 50h328c27.253 0 50-22.747 50-50v-328c0-27.259-22.742-50-50-50h-52v-12h52c33.791 0 62 28.209 62 62v328c0 33.791-28.209 62-62 62zm-378-114h-12v-12h12zm0-20h-12v-256c0-33.791 28.209-62 62-62h268v12h-268c-27.253 0-50 22.746-50 50z"/><path d="m200.3 385.473c-35.743 0-71.452-9.8-101.863-28.975a6 6 0 0 1 3.889-11.036 124.8 124.8 0 0 0 76.728-16.062 68.978 68.978 0 0 1 -48.5-45.228 6 6 0 0 1 6.8-7.76q.585.109 1.174.206a69.3 69.3 0 0 1 -30.468-57.3 6 6 0 0 1 8.878-5.265 57.2 57.2 0 0 0 6.145 2.9 68.945 68.945 0 0 1 -12.465-26.192 66.977 66.977 0 0 1 7.362-49.932 6 6 0 0 1 9.784-.77 175.345 175.345 0 0 0 118.729 62.441 68.387 68.387 0 0 1 4.466-32.971 69.324 69.324 0 0 1 46.341-40.707 70.962 70.962 0 0 1 66.252 16.813 121.714 121.714 0 0 0 35.259-13.793 6 6 0 0 1 8.733 7.037 67.91 67.91 0 0 1 -12.01 21.959 120.263 120.263 0 0 0 12.422-4.634 6 6 0 0 1 7.371 8.863 132.58 132.58 0 0 1 -30.45 31.883 184.6 184.6 0 0 1 -13.287 72.719c-18.231 45.617-53.67 82.4-97.229 100.923a189.533 189.533 0 0 1 -74.061 14.881zm-73.86-27.581c44.841 20.022 97.762 20.988 143.227 1.657 40.639-17.279 73.727-51.663 90.78-94.333a171.95 171.95 0 0 0 12.328-70.967 6 6 0 0 1 2.518-5.161 121.371 121.371 0 0 0 17.331-14.952 135.319 135.319 0 0 1 -17.94 3.337 6 6 0 0 1 -3.744-11.129 57.184 57.184 0 0 0 17.523-16 134.146 134.146 0 0 1 -25.715 7.715 6 6 0 0 1 -5.488-1.754 58.684 58.684 0 0 0 -56.877-15.883 57.269 57.269 0 0 0 -38.3 33.608 56.4 56.4 0 0 0 -2.557 33.635 6 6 0 0 1 -6.139 7.354 187.591 187.591 0 0 1 -128.837-60.384 56.809 56.809 0 0 0 21.5 67.471 6 6 0 0 1 -3.487 11.009 70.46 70.46 0 0 1 -21.681-4.16 57.25 57.25 0 0 0 45.161 46.4 6 6 0 0 1 .385 11.682 70.872 70.872 0 0 1 -20.673 2.328 57.487 57.487 0 0 0 49.78 30.241 6 6 0 0 1 3.554 10.751 135.912 135.912 0 0 1 -72.649 27.535z"/></g></svg>