<svg width="30" height="31" viewBox="0 0 30 31" fill="none" xmlns="http://www.w3.org/2000/svg">
<path d="M26.1261 7.58026L26.1263 7.58052C27.0569 8.79999 27.5527 10.3287 27.5527 12.0068C27.5527 14.3943 26.1259 17.0629 23.2194 19.9408C20.8548 22.2823 18.0546 24.2036 16.5952 25.1417C16.1189 25.4465 15.5654 25.6084 15 25.6084C14.4346 25.6084 13.8811 25.4465 13.4048 25.1417C11.9444 24.2037 9.14534 22.2823 6.78063 19.9409C3.87406 17.0617 2.44727 14.3943 2.44727 12.0068C2.44727 10.3287 2.94306 8.79999 3.87374 7.58052L3.87393 7.58026C4.75677 6.42034 6.00388 5.59083 7.41491 5.225C8.82594 4.85917 10.319 4.97825 11.6542 5.56312L11.6559 5.56386C12.8518 6.07711 13.925 6.95005 14.7997 8.1205L14.9998 8.38814L15.2001 8.12073C16.0748 6.95309 17.1483 6.07991 18.3446 5.56366L18.3458 5.56312C19.681 4.97825 21.1741 4.85917 22.5851 5.225C23.9961 5.59083 25.2432 6.42034 26.1261 7.58026Z" fill="white" stroke="black" stroke-width="0.5"/>
</svg>
