<svg width="24" height="24" viewBox="0 0 24 24" fill="none" xmlns="http://www.w3.org/2000/svg">
<g clip-path="url(#clip0_1326_6786)">
<path d="M22.246 23.0429C22.0624 23.6783 21.1023 23.5054 21.1575 22.8315C21.4354 19.4483 20.3566 16.4026 18.0522 14.145C15.7365 11.8762 10.9958 10.8634 8.11413 11.3L9.8062 12.6873C10.0826 12.9149 10.2579 13.2421 10.2926 13.5986C10.4088 14.7901 9.02634 15.5285 8.09997 14.7696L1.02792 8.97503C0.588424 8.61464 0.525429 7.96613 0.887772 7.5281L6.71212 0.490726C7.47539 -0.431736 8.97262 0.0272977 9.08884 1.21883C9.13474 1.56408 9.03464 1.91226 8.81244 2.18036L7.53838 3.72007C11.5413 3.86853 15.2057 5.41654 18.0771 8.22983C22.1557 12.2254 23.7139 17.9687 22.246 23.0429Z" fill="#3D3D3D"/>
</g>
<defs>
<clipPath id="clip0_1326_6786">
<rect width="23.44" height="23.44" fill="white"/>
</clipPath>
</defs>
</svg>
