<svg width="25" height="26" viewBox="0 0 25 26" fill="none" xmlns="http://www.w3.org/2000/svg">
<g clip-path="url(#clip0_1304_1042)">
<path d="M16.1865 18.542L16.3753 18.6386L16.5014 18.4682C17.2586 17.4448 18.4615 16.7748 19.8242 16.7748C22.1094 16.7748 23.9688 18.6341 23.9688 20.9193C23.9688 23.2045 22.1094 25.0638 19.8242 25.0638C17.539 25.0638 15.6797 23.2045 15.6797 20.9193C15.6797 20.5004 15.7615 20.0988 15.8839 19.7037L15.9461 19.503L15.759 19.4072L8.85589 15.8723L8.66423 15.7741L8.53876 15.9491C7.78475 17.0008 6.56151 17.6908 5.17578 17.6908C2.89056 17.6908 1.03125 15.8315 1.03125 13.5463C1.03125 11.261 2.89056 9.40173 5.17578 9.40173C6.41349 9.40173 7.51534 9.95893 8.27766 10.8278L8.41545 10.9848L8.59447 10.8771L15.8643 6.50256L16.0446 6.39409L15.9685 6.19794C15.7874 5.73112 15.6797 5.23201 15.6797 4.70837C15.6797 2.42315 17.539 0.563843 19.8242 0.563843C22.1094 0.563843 23.9688 2.42315 23.9688 4.70837C23.9688 6.99359 22.1094 8.85291 19.8242 8.85291C18.5649 8.85291 17.4469 8.27557 16.6838 7.38002L16.5463 7.21863L16.3646 7.32796L9.11631 11.6897L8.93332 11.7998L9.0135 11.9977C9.20828 12.4786 9.32031 12.9995 9.32031 13.5463C9.32031 13.9433 9.24549 14.3247 9.13462 14.7026L9.07636 14.9012L9.26057 14.9955L16.1865 18.542Z" fill="#3D3D3D" stroke="#1E1E1E" stroke-width="0.5"/>
</g>
<defs>
<clipPath id="clip0_1304_1042">
<rect width="25" height="25" fill="white" transform="translate(0 0.313843)"/>
</clipPath>
</defs>
</svg>
